<?xml version="1.0" encoding="UTF-8" standalone="no"?>
<!-- Generator: Adobe Fireworks 10, Export SVG Extension by Aaron Beall (http://fireworks.abeall.com) . Version: 0.6.1  -->
<!DOCTYPE svg  PUBLIC '-//W3C//DTD SVG 1.1//EN'  '//www.w3.org/Graphics/SVG/1.1/DTD/svg11.dtd'>
<svg id="Untitled-%u9801%u9762%201" style="background-color:#ffffff00" xmlns="//www.w3.org/2000/svg" xml:space="preserve" height="30px" width="30px" version="1.1" y="0px" x="0px" xmlns:xlink="//www.w3.org/1999/xlink" viewBox="0 0 30 30">
	<g id="%u5716%u5C64%201">
		<path d="m23.559 21.432l-3.91-3.91c-0.021-0.021-0.045-0.035-0.067-0.054 0.77-1.168 1.219-2.565 1.219-4.068 0-4.0867-3.314-7.4-7.401-7.4-4.0868 0-7.4 3.3133-7.4 7.4 0 4.087 3.3132 7.401 7.4 7.401 1.503 0 2.9-0.449 4.067-1.219 0.019 0.022 0.034 0.046 0.055 0.067l3.91 3.91c0.588 0.588 1.54 0.588 2.127 0 0.588-0.587 0.588-1.539 0-2.127zm-10.159-3.197c-2.67 0-4.8347-2.164-4.8347-4.835 0-2.67 2.1647-4.8347 4.8347-4.8347 2.671 0 4.835 2.1647 4.835 4.8347 0 2.671-2.164 4.835-4.835 4.835z" fill="#888"/>
	</g>
</svg>
